<?xml version="1.0" encoding="UTF-8" standalone="no"?>
<!DOCTYPE svg PUBLIC "-//W3C//DTD SVG 1.1//EN"
 "http://www.w3.org/Graphics/SVG/1.1/DTD/svg11.dtd">
<!-- Generated by graphviz version 2.43.0 (0)
 -->
<!-- Title: CAFDecisionTrace Pages: 1 -->
<svg width="1637pt" height="426pt"
 viewBox="0.00 0.00 1636.80 425.80" xmlns="http://www.w3.org/2000/svg" xmlns:xlink="http://www.w3.org/1999/xlink">
<g id="graph0" class="graph" transform="scale(1 1) rotate(0) translate(14.4 411.4)">
<title>CAFDecisionTrace</title>
<polygon fill="white" stroke="transparent" points="-14.4,14.4 -14.4,-411.4 1622.4,-411.4 1622.4,14.4 -14.4,14.4"/>
<text text-anchor="middle" x="804" y="-381.8" font-family="Times,serif" font-size="14.00">CAF Decision Trace and Replay Chain</text>
<!-- E -->
<g id="node1" class="node">
<title>E</title>
<path fill="#eef6ff" stroke="#204060" d="M187,-42C187,-42 12,-42 12,-42 6,-42 0,-36 0,-30 0,-30 0,-18 0,-18 0,-12 6,-6 12,-6 12,-6 187,-6 187,-6 193,-6 199,-12 199,-18 199,-18 199,-30 199,-30 199,-36 193,-42 187,-42"/>
<text text-anchor="middle" x="99.5" y="-27.04" font-family="Arial" font-size="11.20">Evidence Envelope</text>
<text text-anchor="middle" x="99.5" y="-15.04" font-family="Arial" font-size="11.20">(identity + schema + labels + integrity)</text>
</g>
<!-- D -->
<g id="node2" class="node">
<title>D</title>
<path fill="#fff7ed" stroke="#9a3412" d="M459,-165C459,-165 266,-165 266,-165 260,-165 254,-159 254,-153 254,-153 254,-141 254,-141 254,-135 260,-129 266,-129 266,-129 459,-129 459,-129 465,-129 471,-135 471,-141 471,-141 471,-153 471,-153 471,-159 465,-165 459,-165"/>
<text text-anchor="middle" x="362.5" y="-150.04" font-family="Arial" font-size="11.20">Decision Record</text>
<text text-anchor="middle" x="362.5" y="-138.04" font-family="Arial" font-size="11.20">(ASM hash + policy hash + evidence refs)</text>
</g>
<!-- E&#45;&gt;D -->
<g id="edge1" class="edge">
<title>E&#45;&gt;D</title>
<path fill="none" stroke="#204060" stroke-width="1.3" d="M138.73,-42.02C185.83,-64.21 265.76,-101.88 315.98,-125.55"/>
<polygon fill="#204060" stroke="#204060" stroke-width="1.3" points="314.95,-128.08 323.17,-128.93 317.27,-123.14 314.95,-128.08"/>
</g>
<!-- R -->
<g id="node6" class="node">
<title>R</title>
<path fill="#f1f5f9" stroke="#204060" d="M1596,-124C1596,-124 1451,-124 1451,-124 1445,-124 1439,-118 1439,-112 1439,-112 1439,-100 1439,-100 1439,-94 1445,-88 1451,-88 1451,-88 1596,-88 1596,-88 1602,-88 1608,-94 1608,-100 1608,-100 1608,-112 1608,-112 1608,-118 1602,-124 1596,-124"/>
<text text-anchor="middle" x="1523.5" y="-109.04" font-family="Arial" font-size="11.20">Replay / After&#45;Action</text>
<text text-anchor="middle" x="1523.5" y="-97.04" font-family="Arial" font-size="11.20">what known &#45;&gt; decided &#45;&gt; done</text>
</g>
<!-- E&#45;&gt;R -->
<g id="edge9" class="edge">
<title>E&#45;&gt;R</title>
<path fill="none" stroke="#64748b" stroke-width="1.3" stroke-dasharray="1,5" d="M199.14,-10.63C247.91,-5.12 307.69,0 361.5,0 361.5,0 361.5,0 1222.5,0 1322.15,0 1430.33,-52.64 1485.54,-83.73"/>
<polygon fill="#64748b" stroke="#64748b" stroke-width="1.3" points="1484.52,-86.29 1492.65,-87.78 1487.22,-81.54 1484.52,-86.29"/>
<text text-anchor="middle" x="850" y="-2.96" font-family="Times,serif" font-size="8.80" fill="#64748b">reference&#45;only linkage</text>
</g>
<!-- EP -->
<g id="node3" class="node">
<title>EP</title>
<path fill="#f8fafc" stroke="#204060" d="M759,-206C759,-206 538,-206 538,-206 532,-206 526,-200 526,-194 526,-194 526,-182 526,-182 526,-176 532,-170 538,-170 538,-170 759,-170 759,-170 765,-170 771,-176 771,-182 771,-182 771,-194 771,-194 771,-200 765,-206 759,-206"/>
<text text-anchor="middle" x="648.5" y="-191.04" font-family="Arial" font-size="11.20">Enforcement Point</text>
<text text-anchor="middle" x="648.5" y="-179.04" font-family="Arial" font-size="11.20">(merge/admission/segmentation/data/response)</text>
</g>
<!-- D&#45;&gt;EP -->
<g id="edge2" class="edge">
<title>D&#45;&gt;EP</title>
<path fill="none" stroke="#204060" stroke-width="1.3" d="M471.27,-162.56C486.37,-164.74 502.02,-167 517.48,-169.23"/>
<polygon fill="#204060" stroke="#204060" stroke-width="1.3" points="517.43,-171.98 525.54,-170.39 518.21,-166.58 517.43,-171.98"/>
</g>
<!-- D&#45;&gt;R -->
<g id="edge10" class="edge">
<title>D&#45;&gt;R</title>
<path fill="none" stroke="#64748b" stroke-width="1.3" stroke-dasharray="1,5" d="M444.77,-128.96C501.32,-117.96 578.63,-106 647.5,-106 647.5,-106 647.5,-106 1222.5,-106 1292.41,-106 1371.48,-106 1430.89,-106"/>
<polygon fill="#64748b" stroke="#64748b" stroke-width="1.3" points="1430.97,-108.73 1438.77,-106 1430.97,-103.27 1430.97,-108.73"/>
<text text-anchor="middle" x="1001" y="-108.96" font-family="Times,serif" font-size="8.80" fill="#64748b">reference&#45;only linkage</text>
</g>
<!-- L -->
<g id="node7" class="node">
<title>L</title>
<path fill="#ecfdf5" stroke="#166534" d="M1580,-308C1580,-308 1467,-308 1467,-308 1461,-308 1455,-302 1455,-296 1455,-296 1455,-284 1455,-284 1455,-278 1461,-272 1467,-272 1467,-272 1580,-272 1580,-272 1586,-272 1592,-278 1592,-284 1592,-284 1592,-296 1592,-296 1592,-302 1586,-308 1580,-308"/>
<text text-anchor="middle" x="1523.5" y="-293.04" font-family="Arial" font-size="11.20">Proof Ledger / Anchoring</text>
<text text-anchor="middle" x="1523.5" y="-281.04" font-family="Arial" font-size="11.20">(tamper&#45;evident chain)</text>
</g>
<!-- D&#45;&gt;L -->
<g id="edge6" class="edge">
<title>D&#45;&gt;L</title>
<path fill="none" stroke="#166534" stroke-width="2" d="M374.85,-165.13C409.05,-217.28 516.88,-364 647.5,-364 647.5,-364 647.5,-364 1222.5,-364 1311.88,-364 1412,-332.65 1471.02,-310.76"/>
<polygon fill="#166534" stroke="#166534" stroke-width="2" points="1472.02,-313.3 1478.36,-308.01 1470.1,-308.19 1472.02,-313.3"/>
<text text-anchor="middle" x="1001" y="-366.64" font-family="Times,serif" font-size="9.20" fill="#166534">anchor decision</text>
</g>
<!-- A -->
<g id="node4" class="node">
<title>A</title>
<path fill="#f8fafc" stroke="#204060" d="M1061,-206C1061,-206 941,-206 941,-206 935,-206 929,-200 929,-194 929,-194 929,-182 929,-182 929,-176 935,-170 941,-170 941,-170 1061,-170 1061,-170 1067,-170 1073,-176 1073,-182 1073,-182 1073,-194 1073,-194 1073,-200 1067,-206 1061,-206"/>
<text text-anchor="middle" x="1001" y="-191.04" font-family="Arial" font-size="11.20">Action Record</text>
<text text-anchor="middle" x="1001" y="-179.04" font-family="Arial" font-size="11.20">(principal + scope + effect)</text>
</g>
<!-- EP&#45;&gt;A -->
<g id="edge3" class="edge">
<title>EP&#45;&gt;A</title>
<path fill="none" stroke="#204060" stroke-width="1.3" d="M771.1,-188C820.81,-188 876.89,-188 921.1,-188"/>
<polygon fill="#204060" stroke="#204060" stroke-width="1.3" points="921.13,-190.73 928.93,-188 921.13,-185.27 921.13,-190.73"/>
</g>
<!-- V -->
<g id="node5" class="node">
<title>V</title>
<path fill="#ecfdf5" stroke="#166534" d="M1303,-206C1303,-206 1140,-206 1140,-206 1134,-206 1128,-200 1128,-194 1128,-194 1128,-182 1128,-182 1128,-176 1134,-170 1140,-170 1140,-170 1303,-170 1303,-170 1309,-170 1315,-176 1315,-182 1315,-182 1315,-194 1315,-194 1315,-200 1309,-206 1303,-206"/>
<text text-anchor="middle" x="1221.5" y="-191.04" font-family="Arial" font-size="11.20">Verification Evidence</text>
<text text-anchor="middle" x="1221.5" y="-179.04" font-family="Arial" font-size="11.20">(independent signal confirms effect)</text>
</g>
<!-- A&#45;&gt;V -->
<g id="edge4" class="edge">
<title>A&#45;&gt;V</title>
<path fill="none" stroke="#204060" stroke-width="1.3" d="M1073.24,-188C1088.09,-188 1104.01,-188 1119.69,-188"/>
<polygon fill="#204060" stroke="#204060" stroke-width="1.3" points="1120.06,-190.73 1127.86,-188 1120.06,-185.27 1120.06,-190.73"/>
</g>
<!-- A&#45;&gt;L -->
<g id="edge7" class="edge">
<title>A&#45;&gt;L</title>
<path fill="none" stroke="#166534" stroke-width="2" d="M1054.94,-206.04C1069.48,-210.79 1085.29,-215.77 1100,-220 1218.83,-254.21 1361.57,-273.51 1447.01,-282.84"/>
<polygon fill="#166534" stroke="#166534" stroke-width="2" points="1446.8,-285.56 1454.84,-283.68 1447.38,-280.13 1446.8,-285.56"/>
<text text-anchor="middle" x="1221.5" y="-266.64" font-family="Times,serif" font-size="9.20" fill="#166534">anchor action</text>
</g>
<!-- V&#45;&gt;R -->
<g id="edge5" class="edge">
<title>V&#45;&gt;R</title>
<path fill="none" stroke="#204060" stroke-width="1.3" d="M1292.36,-169.99C1328.18,-160.65 1372.48,-148.93 1412,-138 1425.48,-134.27 1439.85,-130.19 1453.62,-126.22"/>
<polygon fill="#204060" stroke="#204060" stroke-width="1.3" points="1454.47,-128.82 1461.2,-124.03 1452.95,-123.57 1454.47,-128.82"/>
</g>
<!-- V&#45;&gt;L -->
<g id="edge8" class="edge">
<title>V&#45;&gt;L</title>
<path fill="none" stroke="#166534" stroke-width="2" d="M1282.53,-206.06C1319.94,-217.54 1368.98,-233.03 1412,-248 1430.74,-254.52 1451.09,-262.11 1469.15,-269.03"/>
<polygon fill="#166534" stroke="#166534" stroke-width="2" points="1468.49,-271.69 1476.75,-271.94 1470.44,-266.6 1468.49,-271.69"/>
<text text-anchor="middle" x="1377" y="-250.64" font-family="Times,serif" font-size="9.20" fill="#166534">anchor closure</text>
</g>
</g>
</svg>
