<?xml version="1.0" encoding="UTF-8" standalone="no"?>
<!DOCTYPE svg PUBLIC "-//W3C//DTD SVG 1.1//EN"
 "http://www.w3.org/Graphics/SVG/1.1/DTD/svg11.dtd">
<!-- Generated by graphviz version 2.43.0 (0)
 -->
<!-- Title: CAFConsequenceTiers Pages: 1 -->
<svg width="333pt" height="556pt"
 viewBox="0.00 0.00 333.30 555.80" xmlns="http://www.w3.org/2000/svg" xmlns:xlink="http://www.w3.org/1999/xlink">
<g id="graph0" class="graph" transform="scale(1 1) rotate(0) translate(14.4 541.4)">
<title>CAFConsequenceTiers</title>
<polygon fill="white" stroke="transparent" points="-14.4,14.4 -14.4,-541.4 318.9,-541.4 318.9,14.4 -14.4,14.4"/>
<text text-anchor="middle" x="152.25" y="-511.8" font-family="Times,serif" font-size="14.00">Consequence Tiers vs Action Eligibility</text>
<!-- T1 -->
<g id="node1" class="node">
<title>T1</title>
<path fill="#ecfdf5" stroke="#166534" d="M205.5,-504C205.5,-504 39.5,-504 39.5,-504 33.5,-504 27.5,-498 27.5,-492 27.5,-492 27.5,-432 27.5,-432 27.5,-426 33.5,-420 39.5,-420 39.5,-420 205.5,-420 205.5,-420 211.5,-420 217.5,-426 217.5,-432 217.5,-432 217.5,-492 217.5,-492 217.5,-498 211.5,-504 205.5,-504"/>
<text text-anchor="middle" x="122.5" y="-489.36" font-family="Arial" font-size="10.80">Tier 1 (low consequence)</text>
<text text-anchor="middle" x="122.5" y="-477.36" font-family="Arial" font-size="10.80">Evidence: baseline confidence</text>
<text text-anchor="middle" x="122.5" y="-465.36" font-family="Arial" font-size="10.80">Approvals: pre&#45;authorized policy</text>
<text text-anchor="middle" x="122.5" y="-453.36" font-family="Arial" font-size="10.80">Rate limits: permissive</text>
<text text-anchor="middle" x="122.5" y="-441.36" font-family="Arial" font-size="10.80">Rollback: standard</text>
<text text-anchor="middle" x="122.5" y="-429.36" font-family="Arial" font-size="10.80">Eligible actions: bounded automation</text>
</g>
<!-- T2 -->
<g id="node2" class="node">
<title>T2</title>
<path fill="#eef6ff" stroke="#1d4ed8" d="M207,-364C207,-364 38,-364 38,-364 32,-364 26,-358 26,-352 26,-352 26,-292 26,-292 26,-286 32,-280 38,-280 38,-280 207,-280 207,-280 213,-280 219,-286 219,-292 219,-292 219,-352 219,-352 219,-358 213,-364 207,-364"/>
<text text-anchor="middle" x="122.5" y="-349.36" font-family="Arial" font-size="10.80">Tier 2 (moderate consequence)</text>
<text text-anchor="middle" x="122.5" y="-337.36" font-family="Arial" font-size="10.80">Evidence: stronger corroboration</text>
<text text-anchor="middle" x="122.5" y="-325.36" font-family="Arial" font-size="10.80">Approvals: explicit reviewer</text>
<text text-anchor="middle" x="122.5" y="-313.36" font-family="Arial" font-size="10.80">Rate limits: tighter</text>
<text text-anchor="middle" x="122.5" y="-301.36" font-family="Arial" font-size="10.80">Rollback: pre&#45;staged</text>
<text text-anchor="middle" x="122.5" y="-289.36" font-family="Arial" font-size="10.80">Eligible actions: narrowed automation</text>
</g>
<!-- T1&#45;&gt;T2 -->
<g id="edge1" class="edge">
<title>T1&#45;&gt;T2</title>
<path fill="none" stroke="#204060" stroke-width="1.2" d="M122.5,-419.97C122.5,-404.81 122.5,-387.49 122.5,-371.71"/>
<polygon fill="#204060" stroke="#204060" stroke-width="1.2" points="125.09,-371.51 122.5,-364.11 119.91,-371.51 125.09,-371.51"/>
<text text-anchor="middle" x="213.5" y="-389.8" font-family="Times,serif" font-size="9.00" fill="#204060">higher consequence narrows eligibility</text>
</g>
<!-- T3 -->
<g id="node3" class="node">
<title>T3</title>
<path fill="#fff7ed" stroke="#9a3412" d="M233,-224C233,-224 12,-224 12,-224 6,-224 0,-218 0,-212 0,-212 0,-152 0,-152 0,-146 6,-140 12,-140 12,-140 233,-140 233,-140 239,-140 245,-146 245,-152 245,-152 245,-212 245,-212 245,-218 239,-224 233,-224"/>
<text text-anchor="middle" x="122.5" y="-209.36" font-family="Arial" font-size="10.80">Tier 3 (high consequence)</text>
<text text-anchor="middle" x="122.5" y="-197.36" font-family="Arial" font-size="10.80">Evidence: high&#45;confidence + provenance checks</text>
<text text-anchor="middle" x="122.5" y="-185.36" font-family="Arial" font-size="10.80">Approvals: dual control</text>
<text text-anchor="middle" x="122.5" y="-173.36" font-family="Arial" font-size="10.80">Rate limits: strict</text>
<text text-anchor="middle" x="122.5" y="-161.36" font-family="Arial" font-size="10.80">Rollback: rehearsed + fast</text>
<text text-anchor="middle" x="122.5" y="-149.36" font-family="Arial" font-size="10.80">Eligible actions: constrained containment only</text>
</g>
<!-- T2&#45;&gt;T3 -->
<g id="edge2" class="edge">
<title>T2&#45;&gt;T3</title>
<path fill="none" stroke="#204060" stroke-width="1.2" d="M122.5,-279.97C122.5,-264.81 122.5,-247.49 122.5,-231.71"/>
<polygon fill="#204060" stroke="#204060" stroke-width="1.2" points="125.09,-231.51 122.5,-224.11 119.91,-231.51 125.09,-231.51"/>
<text text-anchor="middle" x="213.5" y="-249.8" font-family="Times,serif" font-size="9.00" fill="#204060">higher consequence narrows eligibility</text>
</g>
<!-- T4 -->
<g id="node4" class="node">
<title>T4</title>
<path fill="#fef2f2" stroke="#991b1b" d="M224.5,-84C224.5,-84 20.5,-84 20.5,-84 14.5,-84 8.5,-78 8.5,-72 8.5,-72 8.5,-12 8.5,-12 8.5,-6 14.5,0 20.5,0 20.5,0 224.5,0 224.5,0 230.5,0 236.5,-6 236.5,-12 236.5,-12 236.5,-72 236.5,-72 236.5,-78 230.5,-84 224.5,-84"/>
<text text-anchor="middle" x="122.5" y="-69.36" font-family="Arial" font-size="10.80">Tier 4 (critical consequence)</text>
<text text-anchor="middle" x="122.5" y="-57.36" font-family="Arial" font-size="10.80">Evidence: highest&#45;confidence package</text>
<text text-anchor="middle" x="122.5" y="-45.36" font-family="Arial" font-size="10.80">Approvals: senior authority + dual control</text>
<text text-anchor="middle" x="122.5" y="-33.36" font-family="Arial" font-size="10.80">Rate limits: minimal</text>
<text text-anchor="middle" x="122.5" y="-21.36" font-family="Arial" font-size="10.80">Rollback: immediate + mandatory verification</text>
<text text-anchor="middle" x="122.5" y="-9.36" font-family="Arial" font-size="10.80">Eligible actions: minimal safe set</text>
</g>
<!-- T3&#45;&gt;T4 -->
<g id="edge3" class="edge">
<title>T3&#45;&gt;T4</title>
<path fill="none" stroke="#204060" stroke-width="1.2" d="M122.5,-139.97C122.5,-124.81 122.5,-107.49 122.5,-91.71"/>
<polygon fill="#204060" stroke="#204060" stroke-width="1.2" points="125.09,-91.51 122.5,-84.11 119.91,-91.51 125.09,-91.51"/>
<text text-anchor="middle" x="213.5" y="-109.8" font-family="Times,serif" font-size="9.00" fill="#204060">higher consequence narrows eligibility</text>
</g>
</g>
</svg>
